<svg width="56" height="56" viewBox="0 0 56 56" fill="none" xmlns="http://www.w3.org/2000/svg">
<path fill-rule="evenodd" clip-rule="evenodd" d="M36.8067 23.6236L36.1842 22.5435C35.6577 21.6295 34.4907 21.3143 33.5755 21.8387V21.8387C33.1399 22.0953 32.6201 22.1681 32.1307 22.041C31.6413 21.914 31.2226 21.5975 30.9668 21.1613C30.8023 20.8841 30.7139 20.5683 30.7105 20.246V20.246C30.7254 19.7292 30.5304 19.2283 30.17 18.8576C29.8096 18.4869 29.3145 18.2778 28.7975 18.278H27.5435C27.037 18.278 26.5513 18.4799 26.194 18.8389C25.8367 19.1979 25.6372 19.6845 25.6396 20.1911V20.1911C25.6246 21.2369 24.7725 22.0768 23.7266 22.0766C23.4042 22.0733 23.0885 21.9849 22.8112 21.8203V21.8203C21.8961 21.296 20.7291 21.6112 20.2025 22.5252L19.5343 23.6236C19.0084 24.5363 19.3194 25.7025 20.23 26.2322V26.2322C20.8219 26.574 21.1865 27.2055 21.1865 27.889C21.1865 28.5725 20.8219 29.204 20.23 29.5457V29.5457C19.3206 30.0719 19.0092 31.2353 19.5343 32.1453V32.1453L20.1659 33.2345C20.4126 33.6797 20.8266 34.0082 21.3162 34.1474C21.8058 34.2865 22.3306 34.2248 22.7746 33.976V33.976C23.2111 33.7213 23.7312 33.6515 24.2193 33.7821C24.7075 33.9128 25.1232 34.233 25.3742 34.6716C25.5387 34.9488 25.6271 35.2646 25.6305 35.5869V35.5869C25.6305 36.6435 26.487 37.5 27.5435 37.5H28.7975C29.8505 37.5 30.7055 36.6491 30.7105 35.5961V35.5961C30.7081 35.088 30.9089 34.6 31.2682 34.2407C31.6275 33.8814 32.1155 33.6806 32.6236 33.6831C32.9452 33.6917 33.2596 33.7797 33.5389 33.9393V33.9393C34.4517 34.4653 35.6179 34.1543 36.1476 33.2437V33.2437L36.8067 32.1453C37.0618 31.7074 37.1318 31.1859 37.0012 30.6963C36.8706 30.2067 36.5502 29.7893 36.111 29.5366V29.5366C35.6718 29.2839 35.3514 28.8665 35.2208 28.3769C35.0902 27.8872 35.1603 27.3658 35.4154 26.9279C35.5812 26.6383 35.8214 26.3981 36.111 26.2322V26.2322C37.0161 25.7028 37.3264 24.5434 36.8067 23.6327V23.6327V23.6236Z" stroke="#53545C" stroke-width="1.5" stroke-linecap="round" stroke-linejoin="round"/>
<circle cx="28.175" cy="27.889" r="2.63616" stroke="#53545C" stroke-width="1.5" stroke-linecap="round" stroke-linejoin="round"/>
</svg>
