<svg width="56" height="56" viewBox="0 0 56 56" fill="none" xmlns="http://www.w3.org/2000/svg">
<path fill-rule="evenodd" clip-rule="evenodd" d="M25.5915 31.2068C29.2805 31.2068 32.4335 31.7658 32.4335 33.9988C32.4335 36.2318 29.3015 36.8068 25.5915 36.8068C21.9015 36.8068 18.7495 36.2528 18.7495 34.0188C18.7495 31.7848 21.8805 31.2068 25.5915 31.2068Z" stroke="#53545C" stroke-width="1.5" stroke-linecap="round" stroke-linejoin="round"/>
<path fill-rule="evenodd" clip-rule="evenodd" d="M25.5916 28.0198C23.1696 28.0198 21.2056 26.0568 21.2056 23.6348C21.2056 21.2128 23.1696 19.2498 25.5916 19.2498C28.0126 19.2498 29.9766 21.2128 29.9766 23.6348C29.9856 26.0478 28.0356 28.0108 25.6226 28.0198H25.5916Z" stroke="#53545C" stroke-width="1.5" stroke-linecap="round" stroke-linejoin="round"/>
<path d="M32.4832 26.8816C34.0842 26.6566 35.3172 25.2826 35.3202 23.6196C35.3202 21.9806 34.1252 20.6206 32.5582 20.3636" stroke="#53545C" stroke-width="1.5" stroke-linecap="round" stroke-linejoin="round"/>
<path d="M34.5955 30.7322C36.1465 30.9632 37.2295 31.5072 37.2295 32.6272C37.2295 33.3982 36.7195 33.8982 35.8955 34.2112" stroke="#53545C" stroke-width="1.5" stroke-linecap="round" stroke-linejoin="round"/>
</svg>
