<svg width="17" height="16" viewBox="0 0 17 16" fill="none" xmlns="http://www.w3.org/2000/svg">
<g clip-path="url(#clip0_84_194)">
<path d="M11.1667 10.6667L8.50004 8L5.83337 10.6667" stroke="#009DC7" stroke-width="2" stroke-linecap="round" stroke-linejoin="round"/>
<path d="M8.5 8V14" stroke="#009DC7" stroke-width="2" stroke-linecap="round" stroke-linejoin="round"/>
<path d="M14.0933 12.2599C14.7435 11.9055 15.2572 11.3445 15.5532 10.6657C15.8493 9.98686 15.9108 9.22877 15.7281 8.51107C15.5454 7.79338 15.129 7.15696 14.5444 6.70225C13.9599 6.24754 13.2406 6.00044 12.5 5.99995H11.66C11.4582 5.21944 11.0821 4.49484 10.5599 3.88061C10.0378 3.26638 9.3832 2.77852 8.64537 2.45369C7.90754 2.12886 7.10567 1.97552 6.30005 2.0052C5.49443 2.03489 4.70602 2.24682 3.99409 2.62506C3.28216 3.0033 2.66525 3.53802 2.18972 4.189C1.7142 4.83999 1.39243 5.59031 1.24863 6.38354C1.10482 7.17678 1.14271 7.9923 1.35945 8.76879C1.57619 9.54528 1.96613 10.2625 2.49997 10.8666" stroke="#009DC7" stroke-width="2" stroke-linecap="round" stroke-linejoin="round"/>
<path d="M11.1667 10.6667L8.50004 8L5.83337 10.6667" stroke="#009DC7" stroke-width="2" stroke-linecap="round" stroke-linejoin="round"/>
</g>
<defs>
<clipPath id="clip0_84_194">
<rect width="16" height="16" fill="white" transform="translate(0.5)"/>
</clipPath>
</defs>
</svg>
