<svg width="56" height="56" viewBox="0 0 56 56" fill="none" xmlns="http://www.w3.org/2000/svg">
<path opacity="0.4" d="M38.1099 51.3333H17.8877C9.97938 51.3333 4.66663 45.7867 4.66663 37.5299V18.4723C4.66663 10.2156 9.97938 4.66663 17.8877 4.66663H38.1122C46.0205 4.66663 51.3333 10.2156 51.3333 18.4723V37.5299C51.3333 45.7867 46.0205 51.3333 38.1099 51.3333Z" fill="#009DC7"/>
<path fill-rule="evenodd" clip-rule="evenodd" d="M26.2382 20.2416C26.2382 23.4383 23.6366 26.0399 20.4399 26.0399C17.2409 26.0399 14.6416 23.4383 14.6416 20.2416C14.6416 17.0449 17.2409 14.4409 20.4399 14.4409C23.6366 14.4409 26.2382 17.0449 26.2382 20.2416ZM45.2675 32.871C45.8112 33.3983 46.2008 34.0003 46.4575 34.642C47.2345 36.5833 46.8308 38.9167 46.0002 40.8393C45.0155 43.1283 43.1302 44.8573 40.7548 45.6133C39.7002 45.9517 38.5942 46.0963 37.4905 46.0963H17.9348C15.9888 46.0963 14.2668 45.6437 12.8552 44.7943C11.9708 44.2623 11.8145 43.0373 12.4702 42.2393C13.5668 40.9093 14.6495 39.5747 15.7415 38.2283C17.8228 35.6523 19.2252 34.9057 20.7838 35.5613C21.4162 35.832 22.0508 36.2403 22.7042 36.6697C24.4448 37.8223 26.8645 39.4043 30.0518 37.687C32.2305 36.4957 33.4952 34.4571 34.596 32.6828L34.6182 32.647C34.6922 32.5282 34.7657 32.4095 34.8389 32.2912C35.2132 31.6864 35.5819 31.0907 35.9995 30.5423C36.5175 29.8633 38.4402 27.74 40.9252 29.252C42.5095 30.204 43.8418 31.492 45.2675 32.871Z" fill="#009DC7"/>
</svg>
