<svg width="172" height="167" viewBox="0 0 172 167" fill="none" xmlns="http://www.w3.org/2000/svg">
<g clip-path="url(#clip0_33_19371)">
<rect width="172" height="167" rx="12" fill="#F4F5FA"/>
<path opacity="0.4" d="M96.1099 92.3333H75.8877C67.9794 92.3333 62.6666 86.7867 62.6666 78.5299V59.4723C62.6666 51.2156 67.9794 45.6666 75.8877 45.6666H96.1122C104.021 45.6666 109.333 51.2156 109.333 59.4723V78.5299C109.333 86.7867 104.021 92.3333 96.1099 92.3333Z" fill="#009DC7"/>
<path fill-rule="evenodd" clip-rule="evenodd" d="M84.2382 61.2416C84.2382 64.4383 81.6366 67.0399 78.4399 67.0399C75.2409 67.0399 72.6416 64.4383 72.6416 61.2416C72.6416 58.0449 75.2409 55.4409 78.4399 55.4409C81.6366 55.4409 84.2382 58.0449 84.2382 61.2416ZM103.268 73.871C103.811 74.3983 104.201 75.0003 104.458 75.642C105.235 77.5833 104.831 79.9167 104 81.8393C103.016 84.1283 101.13 85.8573 98.7548 86.6133C97.7002 86.9517 96.5942 87.0963 95.4905 87.0963H75.9348C73.9888 87.0963 72.2668 86.6437 70.8552 85.7943C69.9708 85.2623 69.8145 84.0373 70.4702 83.2393C71.5668 81.9093 72.6495 80.5747 73.7415 79.2283C75.8228 76.6523 77.2252 75.9057 78.7838 76.5613C79.4162 76.832 80.0508 77.2403 80.7042 77.6697C82.4448 78.8223 84.8645 80.4043 88.0518 78.687C90.2305 77.4957 91.4952 75.4571 92.596 73.6828L92.6182 73.647C92.6922 73.5282 92.7657 73.4095 92.8389 73.2912C93.2132 72.6864 93.5819 72.0907 93.9995 71.5423C94.5175 70.8633 96.4402 68.74 98.9252 70.252C100.51 71.204 101.842 72.492 103.268 73.871Z" fill="#009DC7"/>
<g clip-path="url(#clip1_33_19371)">
<path d="M33.1667 119.667L30.5 117L27.8334 119.667" stroke="#009DC7" stroke-width="2" stroke-linecap="round" stroke-linejoin="round"/>
<path d="M30.5 117V123" stroke="#009DC7" stroke-width="2" stroke-linecap="round" stroke-linejoin="round"/>
<path d="M36.0933 121.26C36.7435 120.905 37.2572 120.345 37.5532 119.666C37.8493 118.987 37.9108 118.229 37.7281 117.511C37.5454 116.793 37.129 116.157 36.5444 115.702C35.9599 115.248 35.2406 115 34.5 115H33.66C33.4582 114.219 33.0821 113.495 32.5599 112.881C32.0378 112.266 31.3832 111.779 30.6454 111.454C29.9075 111.129 29.1057 110.976 28.3001 111.005C27.4944 111.035 26.706 111.247 25.9941 111.625C25.2822 112.003 24.6652 112.538 24.1897 113.189C23.7142 113.84 23.3924 114.59 23.2486 115.384C23.1048 116.177 23.1427 116.992 23.3594 117.769C23.5762 118.545 23.9661 119.263 24.5 119.867" stroke="#009DC7" stroke-width="2" stroke-linecap="round" stroke-linejoin="round"/>
<path d="M33.1667 119.667L30.5 117L27.8334 119.667" stroke="#009DC7" stroke-width="2" stroke-linecap="round" stroke-linejoin="round"/>
</g>
<path d="M58.3928 112.818H59.9339V119.515C59.9339 120.228 59.7666 120.859 59.4318 121.409C59.0971 121.956 58.6264 122.387 58.0199 122.702C57.4134 123.013 56.7024 123.169 55.8871 123.169C55.075 123.169 54.3658 123.013 53.7592 122.702C53.1527 122.387 52.6821 121.956 52.3473 121.409C52.0125 120.859 51.8452 120.228 51.8452 119.515V112.818H53.3814V119.391C53.3814 119.851 53.4825 120.261 53.6847 120.619C53.8902 120.977 54.1802 121.258 54.5547 121.464C54.9292 121.666 55.3733 121.767 55.8871 121.767C56.4041 121.767 56.8499 121.666 57.2244 121.464C57.6023 121.258 57.8906 120.977 58.0895 120.619C58.2917 120.261 58.3928 119.851 58.3928 119.391V112.818ZM62.0481 125.864V115.364H63.4998V116.602H63.6241C63.7103 116.442 63.8346 116.259 63.997 116.05C64.1594 115.841 64.3848 115.659 64.6731 115.503C64.9615 115.344 65.3426 115.264 65.8166 115.264C66.4331 115.264 66.9833 115.42 67.4672 115.732C67.9511 116.043 68.3306 116.492 68.6056 117.079C68.8841 117.665 69.0233 118.371 69.0233 119.197C69.0233 120.022 68.8857 120.73 68.6106 121.32C68.3355 121.906 67.9577 122.359 67.4771 122.677C66.9965 122.992 66.448 123.149 65.8315 123.149C65.3675 123.149 64.988 123.071 64.693 122.915C64.4013 122.76 64.1726 122.577 64.0069 122.369C63.8412 122.16 63.7136 121.974 63.6241 121.812H63.5346V125.864H62.0481ZM63.5048 119.182C63.5048 119.719 63.5827 120.189 63.7385 120.594C63.8942 120.998 64.1196 121.315 64.4146 121.543C64.7096 121.769 65.0708 121.881 65.4984 121.881C65.9425 121.881 66.3137 121.764 66.612 121.528C66.9103 121.29 67.1357 120.967 67.2882 120.559C67.444 120.151 67.5218 119.692 67.5218 119.182C67.5218 118.678 67.4456 118.226 67.2931 117.825C67.144 117.424 66.9186 117.107 66.617 116.875C66.3187 116.643 65.9458 116.527 65.4984 116.527C65.0675 116.527 64.7029 116.638 64.4047 116.86C64.1097 117.082 63.8859 117.392 63.7335 117.79C63.581 118.187 63.5048 118.652 63.5048 119.182ZM72.1752 112.818V123H70.6887V112.818H72.1752ZM77.3917 123.154C76.6758 123.154 76.051 122.99 75.5174 122.662C74.9838 122.334 74.5695 121.875 74.2745 121.285C73.9795 120.695 73.832 120.005 73.832 119.217C73.832 118.424 73.9795 117.732 74.2745 117.138C74.5695 116.545 74.9838 116.085 75.5174 115.756C76.051 115.428 76.6758 115.264 77.3917 115.264C78.1076 115.264 78.7324 115.428 79.266 115.756C79.7996 116.085 80.2139 116.545 80.5089 117.138C80.8039 117.732 80.9513 118.424 80.9513 119.217C80.9513 120.005 80.8039 120.695 80.5089 121.285C80.2139 121.875 79.7996 122.334 79.266 122.662C78.7324 122.99 78.1076 123.154 77.3917 123.154ZM77.3967 121.906C77.8607 121.906 78.2451 121.784 78.5501 121.538C78.855 121.293 79.0804 120.967 79.2262 120.559C79.3754 120.151 79.4499 119.702 79.4499 119.212C79.4499 118.724 79.3754 118.277 79.2262 117.869C79.0804 117.458 78.855 117.129 78.5501 116.88C78.2451 116.631 77.8607 116.507 77.3967 116.507C76.9293 116.507 76.5415 116.631 76.2333 116.88C75.9284 117.129 75.7013 117.458 75.5522 117.869C75.4064 118.277 75.3335 118.724 75.3335 119.212C75.3335 119.702 75.4064 120.151 75.5522 120.559C75.7013 120.967 75.9284 121.293 76.2333 121.538C76.5415 121.784 76.9293 121.906 77.3967 121.906ZM84.8329 123.169C84.349 123.169 83.9115 123.08 83.5204 122.901C83.1293 122.718 82.8194 122.455 82.5907 122.11C82.3654 121.765 82.2527 121.343 82.2527 120.842C82.2527 120.411 82.3355 120.057 82.5012 119.778C82.667 119.5 82.8907 119.28 83.1724 119.117C83.4541 118.955 83.769 118.832 84.117 118.749C84.465 118.666 84.8197 118.603 85.1809 118.56C85.6383 118.507 86.0095 118.464 86.2946 118.431C86.5796 118.395 86.7868 118.337 86.916 118.257C87.0453 118.178 87.1099 118.048 87.1099 117.869V117.835C87.1099 117.4 86.9873 117.064 86.742 116.825C86.5001 116.587 86.1388 116.467 85.6582 116.467C85.1577 116.467 84.7633 116.578 84.475 116.8C84.1899 117.019 83.9927 117.263 83.8833 117.531L82.4863 117.213C82.652 116.749 82.894 116.375 83.2122 116.089C83.5337 115.801 83.9032 115.592 84.3208 115.463C84.7385 115.33 85.1776 115.264 85.6383 115.264C85.9432 115.264 86.2664 115.301 86.6078 115.374C86.9525 115.443 87.274 115.572 87.5723 115.761C87.8739 115.95 88.1208 116.22 88.313 116.572C88.5053 116.92 88.6014 117.372 88.6014 117.929V123H87.1497V121.956H87.09C86.9939 122.148 86.8497 122.337 86.6575 122.523C86.4653 122.708 86.2183 122.862 85.9167 122.985C85.6151 123.108 85.2538 123.169 84.8329 123.169ZM85.1561 121.976C85.5671 121.976 85.9184 121.895 86.21 121.732C86.505 121.57 86.7288 121.358 86.8812 121.096C87.037 120.831 87.1149 120.547 87.1149 120.246V119.261C87.0618 119.314 86.9591 119.364 86.8066 119.411C86.6575 119.454 86.4868 119.492 86.2946 119.525C86.1023 119.555 85.9151 119.583 85.7328 119.609C85.5505 119.633 85.398 119.652 85.2754 119.669C84.987 119.705 84.7235 119.767 84.4849 119.853C84.2496 119.939 84.0607 120.063 83.9181 120.226C83.7789 120.385 83.7093 120.597 83.7093 120.862C83.7093 121.23 83.8452 121.509 84.117 121.697C84.3888 121.883 84.7351 121.976 85.1561 121.976ZM93.44 123.149C92.8235 123.149 92.2733 122.992 91.7894 122.677C91.3088 122.359 90.931 121.906 90.6559 121.32C90.3841 120.73 90.2482 120.022 90.2482 119.197C90.2482 118.371 90.3858 117.665 90.6609 117.079C90.9393 116.492 91.3204 116.043 91.8043 115.732C92.2882 115.42 92.8368 115.264 93.4499 115.264C93.9239 115.264 94.305 115.344 94.5934 115.503C94.8851 115.659 95.1104 115.841 95.2695 116.05C95.4319 116.259 95.5579 116.442 95.6474 116.602H95.7369V112.818H97.2234V123H95.7717V121.812H95.6474C95.5579 121.974 95.4286 122.16 95.2596 122.369C95.0939 122.577 94.8652 122.76 94.5735 122.915C94.2818 123.071 93.904 123.149 93.44 123.149ZM93.7681 121.881C94.1957 121.881 94.5569 121.769 94.8519 121.543C95.1502 121.315 95.3756 120.998 95.5281 120.594C95.6838 120.189 95.7617 119.719 95.7617 119.182C95.7617 118.652 95.6855 118.187 95.533 117.79C95.3806 117.392 95.1568 117.082 94.8619 116.86C94.5669 116.638 94.2023 116.527 93.7681 116.527C93.3207 116.527 92.9478 116.643 92.6495 116.875C92.3512 117.107 92.1258 117.424 91.9734 117.825C91.8242 118.226 91.7496 118.678 91.7496 119.182C91.7496 119.692 91.8259 120.151 91.9783 120.559C92.1308 120.967 92.3562 121.29 92.6545 121.528C92.9561 121.764 93.3273 121.881 93.7681 121.881ZM104.223 115.364L105.909 118.337L107.609 115.364H109.235L106.853 119.182L109.255 123H107.629L105.909 120.146L104.194 123H102.563L104.939 119.182L102.593 115.364H104.223ZM112.248 112.818V123H110.761V112.818H112.248ZM119.97 117.228L118.622 117.467C118.566 117.294 118.477 117.13 118.354 116.974C118.235 116.819 118.072 116.691 117.867 116.592C117.661 116.492 117.404 116.442 117.096 116.442C116.675 116.442 116.324 116.537 116.042 116.726C115.76 116.911 115.619 117.152 115.619 117.447C115.619 117.702 115.714 117.907 115.903 118.063C116.092 118.219 116.397 118.347 116.818 118.446L118.031 118.724C118.733 118.887 119.257 119.137 119.602 119.475C119.946 119.813 120.119 120.252 120.119 120.793C120.119 121.25 119.986 121.658 119.721 122.016C119.459 122.37 119.093 122.649 118.622 122.851C118.155 123.053 117.613 123.154 116.997 123.154C116.142 123.154 115.444 122.972 114.904 122.607C114.363 122.239 114.032 121.717 113.909 121.041L115.346 120.822C115.436 121.197 115.619 121.48 115.898 121.673C116.176 121.862 116.539 121.956 116.987 121.956C117.474 121.956 117.863 121.855 118.155 121.653C118.447 121.447 118.593 121.197 118.593 120.902C118.593 120.663 118.503 120.463 118.324 120.3C118.148 120.138 117.878 120.015 117.514 119.933L116.221 119.649C115.508 119.487 114.981 119.228 114.64 118.874C114.302 118.519 114.133 118.07 114.133 117.526C114.133 117.076 114.259 116.681 114.511 116.343C114.763 116.005 115.111 115.741 115.555 115.553C115.999 115.36 116.508 115.264 117.081 115.264C117.906 115.264 118.556 115.443 119.03 115.801C119.504 116.156 119.817 116.631 119.97 117.228ZM125.631 112.341L122.35 124.531H121.022L124.304 112.341H125.631ZM130.11 123.154C129.371 123.154 128.735 122.987 128.201 122.652C127.671 122.314 127.263 121.848 126.978 121.255C126.693 120.662 126.551 119.982 126.551 119.217C126.551 118.441 126.697 117.757 126.988 117.163C127.28 116.567 127.691 116.101 128.221 115.766C128.752 115.432 129.376 115.264 130.096 115.264C130.676 115.264 131.193 115.372 131.647 115.587C132.101 115.799 132.467 116.098 132.745 116.482C133.027 116.867 133.194 117.316 133.248 117.83H131.801C131.721 117.472 131.539 117.163 131.254 116.905C130.972 116.646 130.594 116.517 130.12 116.517C129.706 116.517 129.343 116.626 129.032 116.845C128.723 117.061 128.483 117.369 128.311 117.77C128.138 118.168 128.052 118.638 128.052 119.182C128.052 119.739 128.137 120.219 128.306 120.624C128.475 121.028 128.713 121.341 129.022 121.563C129.333 121.785 129.699 121.896 130.12 121.896C130.402 121.896 130.657 121.845 130.886 121.742C131.118 121.636 131.312 121.485 131.468 121.29C131.627 121.094 131.738 120.859 131.801 120.584H133.248C133.194 121.078 133.034 121.518 132.765 121.906C132.497 122.294 132.137 122.599 131.686 122.821C131.239 123.043 130.714 123.154 130.11 123.154ZM140.559 117.228L139.212 117.467C139.156 117.294 139.066 117.13 138.944 116.974C138.824 116.819 138.662 116.691 138.456 116.592C138.251 116.492 137.994 116.442 137.686 116.442C137.265 116.442 136.914 116.537 136.632 116.726C136.35 116.911 136.209 117.152 136.209 117.447C136.209 117.702 136.304 117.907 136.493 118.063C136.682 118.219 136.987 118.347 137.407 118.446L138.621 118.724C139.323 118.887 139.847 119.137 140.192 119.475C140.536 119.813 140.709 120.252 140.709 120.793C140.709 121.25 140.576 121.658 140.311 122.016C140.049 122.37 139.683 122.649 139.212 122.851C138.745 123.053 138.203 123.154 137.586 123.154C136.731 123.154 136.034 122.972 135.493 122.607C134.953 122.239 134.622 121.717 134.499 121.041L135.936 120.822C136.025 121.197 136.209 121.48 136.488 121.673C136.766 121.862 137.129 121.956 137.577 121.956C138.064 121.956 138.453 121.855 138.745 121.653C139.037 121.447 139.182 121.197 139.182 120.902C139.182 120.663 139.093 120.463 138.914 120.3C138.738 120.138 138.468 120.015 138.104 119.933L136.811 119.649C136.098 119.487 135.571 119.228 135.23 118.874C134.892 118.519 134.723 118.07 134.723 117.526C134.723 117.076 134.849 116.681 135.101 116.343C135.353 116.005 135.701 115.741 136.145 115.553C136.589 115.36 137.098 115.264 137.671 115.264C138.496 115.264 139.146 115.443 139.62 115.801C140.094 116.156 140.407 116.631 140.559 117.228ZM148.876 115.364L146.107 123H144.516L141.741 115.364H143.337L145.271 121.24H145.351L147.28 115.364H148.876Z" fill="#009DC7"/>
</g>
<rect x="0.5" y="0.5" width="171" height="166" rx="11.5" stroke="#E1E2E9"/>
<defs>
<clipPath id="clip0_33_19371">
<rect width="172" height="167" rx="12" fill="white"/>
</clipPath>
<clipPath id="clip1_33_19371">
<rect width="16" height="16" fill="white" transform="translate(22.5 109)"/>
</clipPath>
</defs>
</svg>
