<svg width="31" height="30" viewBox="0 0 31 30" fill="none" xmlns="http://www.w3.org/2000/svg">
<path fill-rule="evenodd" clip-rule="evenodd" d="M24.0243 3.04287C24.4183 3.4368 23.82 4.0355 23.4256 3.64158C22.0496 2.26558 19.7896 2.26558 18.4136 3.64119C18.0197 4.03511 17.421 3.4368 17.8149 3.04248C19.518 1.34017 22.322 1.34056 24.0243 3.04287ZM15.8676 16.4996L8.86917 9.50121L1.79455 16.5758C0.599485 17.7709 0.00156345 19.3474 0.00156345 20.9239H0C0 26.4275 6.66585 29.0982 10.4918 25.2727L13.8538 21.9106C13.8945 19.8554 14.6436 17.9733 15.8676 16.4996ZM30.5034 22.5113C30.3971 24.5266 29.5362 26.3419 28.1985 27.6796C23.3615 32.5169 15.0684 29.3077 14.7097 22.5113H30.5034ZM14.7097 21.6644C14.8089 19.7839 15.5651 18.0773 16.7528 16.7705C21.8535 11.4204 30.1501 14.9611 30.5034 21.6644H14.7097ZM22.4295 13.3349L25.269 10.4954C26.4641 9.30034 27.0616 7.72386 27.0616 6.14738H27.0632C27.0632 0.646107 20.4016 -2.03125 16.5714 1.79857L9.46749 8.9029L16.4393 15.8744C17.983 14.3424 20.0941 13.3815 22.4295 13.3349Z" fill="#009DC7" fill-opacity="0.63"/>
</svg>
